<svg width="257.6739" height="54.9989" xmlns="http://www.w3.org/2000/svg">
    <polyline points="141.79495,52.55945 141.79495,49.55945 134.66295,49.55945 134.66295,52.55945 120.39795000000001,52.55945 120.39795000000001,49.55945 113.26495,49.55945 113.26495,52.55945 106.13195,52.55945 106.13195,49.55945 98.99895000000001,49.55945 98.99895000000001,52.55945 91.86695,52.55945 91.86695,49.55945 84.73395,49.55945 84.73395,52.55945 77.60095000000001,52.55945 77.60095000000001,49.55945 70.46795,49.55945 70.46795,52.55945 63.334950000000006,52.55945 63.334950000000006,49.55945 56.20295,49.55945 56.20295,52.55945 49.069950000000006,52.55945 49.069950000000006,49.55945 41.936949999999996,49.55945 41.936949999999996,52.55945 34.80395,52.55945 34.80395,49.55945 27.670950000000005,49.55945 27.670950000000005,52.55945 20.53895,52.55945 20.53895,49.55945 13.405950000000004,49.55945 13.405950000000004,44.05845 10.405950000000004,44.05845 10.405950000000004,38.55845 13.405950000000004,38.55845 13.405950000000004,33.05845 10.405950000000004,33.05845 10.405950000000004,27.55745 13.405950000000004,27.55745 13.405950000000004,21.99845 10.405950000000004,21.99845 10.405950000000004,16.43845 13.405950000000004,16.43845 13.405950000000004,10.99945 10.405950000000004,10.99945 10.405950000000004,5.5604499999999994 13.405950000000004,5.5604499999999994 20.53895,5.5604499999999994 20.53895,2.5604499999999994 27.670950000000005,2.5604499999999994 27.670950000000005,5.5604499999999994 34.80395,5.5604499999999994 34.80395,2.5604499999999994 41.936949999999996,2.5604499999999994 41.936949999999996,5.5604499999999994 49.069950000000006,5.5604499999999994 49.069950000000006,2.5604499999999994 56.20295,2.5604499999999994 56.20295,5.5604499999999994 63.334950000000006,5.5604499999999994 63.334950000000006,2.5604499999999994 70.46795,2.5604499999999994 70.46795,5.5604499999999994 77.60095000000001,5.5604499999999994 77.60095000000001,2.5604499999999994 84.73395,2.5604499999999994 84.73395,5.5604499999999994 91.86695,5.5604499999999994 91.86695,2.5604499999999994 98.99895000000001,2.5604499999999994 98.99895000000001,5.5604499999999994 106.13195,5.5604499999999994 106.13195,2.5604499999999994 113.26495,2.5604499999999994 113.26495,5.5604499999999994 120.39795000000001,5.5604499999999994 120.39795000000001,2.5604499999999994 134.66295,2.5604499999999994 134.66295,5.5604499999999994 141.79495,5.5604499999999994 141.79495,2.5604499999999994 148.92795,2.5604499999999994 148.92795,5.5604499999999994 156.06095,5.5604499999999994 156.06095,2.5604499999999994 163.19395,2.5604499999999994 163.19395,5.5604499999999994 170.32695,5.5604499999999994 170.32695,2.5604499999999994 177.45895000000002,2.5604499999999994 177.45895000000002,5.5604499999999994 184.59195,5.5604499999999994 184.59195,2.5604499999999994 191.72495,2.5604499999999994 191.72495,5.5604499999999994 198.85795000000002,5.5604499999999994 198.85795000000002,2.5604499999999994 205.99095,2.5604499999999994 205.99095,5.5604499999999994 213.12395,5.5604499999999994 213.12395,2.5604499999999994 220.25594999999998,2.5604499999999994 220.25594999999998,5.5604499999999994 227.38895000000002,5.5604499999999994 227.38895000000002,2.5604499999999994 234.52195,2.5604499999999994 234.52195,5.5604499999999994 241.65494999999999,5.5604499999999994 244.65494999999999,5.5604499999999994 244.65494999999999,10.99945 241.65494999999999,10.99945 241.65494999999999,16.43845 244.65494999999999,16.43845 244.65494999999999,21.99845 241.65494999999999,21.99845 241.65494999999999,27.55745 244.65494999999999,27.55745 244.65494999999999,33.05845 241.65494999999999,33.05845 241.65494999999999,38.55845 244.65494999999999,38.55845 244.65494999999999,44.05845 241.65494999999999,44.05845 241.65494999999999,49.55945 234.52195,49.55945 234.52195,52.55945 227.38895000000002,52.55945 227.38895000000002,49.55945 220.25594999999998,49.55945 220.25594999999998,52.55945 213.12395,52.55945 213.12395,49.55945 205.99095,49.55945 205.99095,52.55945 198.85795000000002,52.55945 198.85795000000002,49.55945 191.72495,49.55945 191.72495,52.55945 184.59195,52.55945 184.59195,49.55945 177.45895000000002,49.55945 177.45895000000002,52.55945 170.32695,52.55945 170.32695,49.55945 163.19395,49.55945 163.19395,52.55945 156.06095,52.55945 156.06095,49.55945 148.92795,49.55945 148.92795,52.55945 141.79495,52.55945 " fill="none" stroke="black" stroke-width="1"/>
    <polyline points="154.07595,30.37745 153.20895000000002,29.10045 153.20895000000002,29.07945 152.90495,27.54845 153.20895000000002,26.04045 153.20895000000002,26.018449999999998 154.07595,24.72145 155.37395,23.87545 155.37395,23.85445 156.90495,23.54945 158.43495000000001,23.85445 158.43495000000001,23.87545 159.73295000000002,24.72145 160.59995,26.018449999999998 160.59995,26.04045 160.90494999999999,27.54845 160.59995,29.07945 159.73295000000002,30.37745 158.43495000000001,31.24445 156.90495,31.54845 155.37395,31.24445 154.07595,30.37745 " fill="none" stroke="black" stroke-width="1"/>
    <polyline points="214.12395,31.24445 212.82595,30.37745 211.95895000000002,29.10045 211.95895000000002,29.07945 211.65494999999999,27.54845 211.95895000000002,26.04045 211.95895000000002,26.018449999999998 212.82595,24.72145 214.12395,23.87545 214.12395,23.85445 215.65494999999999,23.54945 217.18495000000001,23.85445 217.18495000000001,23.87545 218.48295000000002,24.72145 219.34995,26.018449999999998 219.34995,26.04045 219.65494999999999,27.54845 219.34995,29.07945 218.48295000000002,30.37745 217.18495000000001,31.24445 215.65494999999999,31.54845 214.12395,31.24445 " fill="none" stroke="black" stroke-width="1"/>
    <polyline points="100.98395,30.37745 99.68595,31.24445 98.15595,31.54845 96.62495,31.24445 95.32695000000001,30.37745 94.45994999999999,29.10045 94.45994999999999,29.07945 94.15595,27.54845 94.45994999999999,26.04045 94.45994999999999,26.018449999999998 95.32695000000001,24.72145 96.62495,23.87545 96.62495,23.85445 98.15595,23.54945 99.68595,23.85445 99.68595,23.87545 100.98395,24.72145 101.85095,26.018449999999998 101.85095,26.04045 102.15595,27.54845 101.85095,29.07945 100.98395,30.37745 " fill="none" stroke="black" stroke-width="1"/>
    <polyline points="43.10095,29.07945 43.405950000000004,27.54845 43.10095,26.04045 43.10095,26.018449999999998 42.23395000000001,24.72145 40.935950000000005,23.87545 40.935950000000005,23.85445 39.405950000000004,23.54945 37.87495,23.85445 37.87495,23.87545 36.57695,24.72145 35.709950000000006,26.018449999999998 35.709950000000006,26.04045 35.405950000000004,27.54845 35.709950000000006,29.07945 35.709950000000006,29.10045 36.57695,30.37745 37.87495,31.24445 39.405950000000004,31.54845 40.935950000000005,31.24445 42.23395000000001,30.37745 43.10095,29.07945 " fill="none" stroke="black" stroke-width="1"/>
</svg>
