<svg width="97.4523" height="54.9989" xmlns="http://www.w3.org/2000/svg">
    <polyline points="17.162149999999997,2.67145 17.162149999999997,5.67145 24.295149999999996,5.67145 24.295149999999996,2.67145 31.42815,2.67145 31.42815,5.67145 38.56014999999999,5.67145 38.56014999999999,2.67145 45.693149999999996,2.67145 45.693149999999996,5.67145 52.825149999999994,5.67145 52.825149999999994,2.67145 59.958149999999996,2.67145 59.958149999999996,5.67145 67.09115,5.67145 67.09115,2.67145 74.22315,2.67145 74.22315,5.67145 81.35615,5.67145 81.35615,2.67145 88.48915,2.67145 88.48915,5.67145 91.48915,5.67145 91.48915,11.11045 88.48915,11.11045 88.48915,16.54945 91.48915,16.54945 91.48915,22.10945 88.48915,22.10945 88.48915,27.66845 91.48915,27.66845 91.48915,33.16845 88.48915,33.16845 88.48915,38.66945 91.48915,38.66945 91.48915,44.16945 88.48915,44.16945 88.48915,49.67045 88.48915,52.67045 81.35615,52.67045 81.35615,49.67045 74.22315,49.67045 74.22315,52.67045 67.09115,52.67045 67.09115,49.67045 59.958149999999996,49.67045 59.958149999999996,52.67045 52.825149999999994,52.67045 52.825149999999994,49.67045 45.693149999999996,49.67045 45.693149999999996,52.67045 38.56014999999999,52.67045 38.56014999999999,49.67045 31.42815,49.67045 31.42815,52.67045 24.295149999999996,52.67045 24.295149999999996,49.67045 17.162149999999997,49.67045 17.162149999999997,52.67045 10.029149999999994,52.67045 10.029149999999994,49.67045 2.8961499999999987,49.67045 2.8961499999999987,44.16945 2.8961499999999987,38.66945 2.8961499999999987,33.16845 2.8961499999999987,27.66845 2.8961499999999987,22.10945 2.8961499999999987,16.54945 2.8961499999999987,11.11045 2.8961499999999987,5.67145 10.029149999999994,5.67145 10.029149999999994,2.67145 17.162149999999997,2.67145 " fill="none" stroke="black" stroke-width="1"/>
</svg>
