<svg width="102.2989" height="54.9989" xmlns="http://www.w3.org/2000/svg">
    <polyline points="29.83245,2.304449999999999 29.83245,5.304449999999999 24.39545,5.304449999999999 24.39545,2.304449999999999 18.95745,2.304449999999999 18.95745,5.304449999999999 13.520450000000004,5.304449999999999 13.520450000000004,2.304449999999999 8.082450000000001,2.304449999999999 8.082450000000001,5.304449999999999 8.082450000000001,10.74345 5.0824500000000015,10.74345 5.0824500000000015,16.18245 8.082450000000001,16.18245 8.082450000000001,21.742449999999998 5.0824500000000015,21.742449999999998 5.0824500000000015,27.30245 8.082450000000001,27.30245 8.082450000000001,32.80245 5.0824500000000015,32.80245 5.0824500000000015,38.30245 8.082450000000001,38.30245 8.082450000000001,43.80345 5.0824500000000015,43.80345 5.0824500000000015,49.30345 8.082450000000001,49.30345 8.082450000000001,52.30345 13.520450000000004,52.30345 13.520450000000004,49.30345 18.95745,49.30345 18.95745,52.30345 24.39545,52.30345 24.39545,49.30345 29.83245,49.30345 29.83245,52.30345 35.270450000000004,52.30345 35.270450000000004,49.30345 40.70745,49.30345 40.70745,52.30345 46.145450000000004,52.30345 46.145450000000004,49.30345 51.581450000000004,49.30345 51.581450000000004,52.30345 57.01945,52.30345 57.01945,49.30345 62.456450000000004,49.30345 62.456450000000004,52.30345 67.89445,52.30345 67.89445,49.30345 73.33145,49.30345 73.33145,52.30345 78.76945,52.30345 78.76945,49.30345 84.20645,49.30345 84.20645,52.30345 89.64445,52.30345 89.64445,49.30345 95.08145,49.30345 98.08145,49.30345 98.08145,43.80345 95.08145,43.80345 95.08145,38.30245 98.08145,38.30245 98.08145,32.80245 95.08145,32.80245 95.08145,27.30245 98.08145,27.30245 98.08145,21.742449999999998 95.08145,21.742449999999998 95.08145,16.18245 98.08145,16.18245 98.08145,10.74345 95.08145,10.74345 95.08145,5.304449999999999 89.64445,5.304449999999999 89.64445,2.304449999999999 84.20645,2.304449999999999 84.20645,5.304449999999999 78.76945,5.304449999999999 78.76945,2.304449999999999 73.33145,2.304449999999999 73.33145,5.304449999999999 67.89445,5.304449999999999 67.89445,2.304449999999999 62.456450000000004,2.304449999999999 62.456450000000004,5.304449999999999 57.01945,5.304449999999999 57.01945,2.304449999999999 51.581450000000004,2.304449999999999 51.581450000000004,5.304449999999999 46.145450000000004,5.304449999999999 46.145450000000004,2.304449999999999 40.70745,2.304449999999999 40.70745,5.304449999999999 35.270450000000004,5.304449999999999 35.270450000000004,2.304449999999999 29.83245,2.304449999999999 " fill="none" stroke="black" stroke-width="1"/>
</svg>
