<svg width="39.1864" height="54.9989" xmlns="http://www.w3.org/2000/svg">
    <polyline points="27.2852,49.25745 27.2852,52.25745 32.7222,52.25745 32.7222,49.25745 38.1602,49.25745 38.1602,43.75745 38.1602,38.25745 38.1602,32.75645 38.1602,27.25745 38.1602,21.69745 38.1602,16.13745 38.1602,10.698450000000001 38.1602,5.25845 32.7222,5.25845 32.7222,2.25845 27.2852,2.25845 27.2852,5.25845 21.8472,5.25845 21.8472,2.25845 16.4112,2.25845 16.4112,5.25845 10.9732,5.25845 10.9732,2.25845 5.536199999999999,2.25845 5.536199999999999,5.25845 5.536199999999999,10.698450000000001 2.536200000000001,10.698450000000001 2.536200000000001,16.13745 5.536199999999999,16.13745 5.536199999999999,21.69745 2.536200000000001,21.69745 2.536200000000001,27.25745 5.536199999999999,27.25745 5.536199999999999,32.75645 2.536200000000001,32.75645 2.536200000000001,38.25745 5.536199999999999,38.25745 5.536199999999999,43.75745 2.536200000000001,43.75745 2.536200000000001,49.25745 5.536199999999999,49.25745 5.536199999999999,52.25745 10.9732,52.25745 10.9732,49.25745 16.4112,49.25745 16.4112,52.25745 21.8472,52.25745 21.8472,49.25745 27.2852,49.25745 " fill="none" stroke="black" stroke-width="1"/>
</svg>
