<svg width="257.6739" height="102.2989" xmlns="http://www.w3.org/2000/svg">
    <polyline points="150.23495,7.579450000000001 150.23495,4.579450000000001 157.36795,4.579450000000001 157.36795,7.579450000000001 164.50095,7.579450000000001 164.50095,4.579450000000001 171.63295,4.579450000000001 171.63295,7.579450000000001 178.76595,7.579450000000001 178.76595,4.579450000000001 185.89895,4.579450000000001 185.89895,7.579450000000001 193.03195,7.579450000000001 193.03195,4.579450000000001 200.16495,4.579450000000001 200.16495,7.579450000000001 207.29694999999998,7.579450000000001 207.29694999999998,4.579450000000001 214.42995000000002,4.579450000000001 214.42995000000002,7.579450000000001 221.56295,7.579450000000001 221.56295,4.579450000000001 228.69594999999998,4.579450000000001 228.69594999999998,7.579450000000001 235.82895000000002,7.579450000000001 235.82895000000002,4.579450000000001 242.96095,4.579450000000001 245.96095,4.579450000000001 245.96095,7.579450000000001 242.96095,7.579450000000001 242.96095,13.017450000000004 245.96095,13.017450000000004 245.96095,18.45445 242.96095,18.45445 242.96095,23.89245 245.96095,23.89245 245.96095,29.32945 242.96095,29.32945 242.96095,34.76745 245.96095,34.76745 245.96095,40.20445 242.96095,40.20445 242.96095,45.642450000000004 245.96095,45.642450000000004 245.96095,51.07945 242.96095,51.07945 242.96095,56.51645 245.96095,56.51645 245.96095,61.953450000000004 242.96095,61.953450000000004 242.96095,67.39145 245.96095,67.39145 245.96095,72.82845 242.96095,72.82845 242.96095,78.26645 245.96095,78.26645 245.96095,83.70345 242.96095,83.70345 242.96095,89.14144999999999 245.96095,89.14144999999999 245.96095,94.57845 245.96095,97.57845 242.96095,97.57845 242.96095,94.57845 235.82895000000002,94.57845 235.82895000000002,97.57845 228.69594999999998,97.57845 228.69594999999998,94.57845 221.56295,94.57845 221.56295,97.57845 214.42995000000002,97.57845 214.42995000000002,94.57845 207.29694999999998,94.57845 207.29694999999998,97.57845 200.16495,97.57845 200.16495,94.57845 193.03195,94.57845 193.03195,97.57845 185.89895,97.57845 185.89895,94.57845 178.76595,94.57845 178.76595,97.57845 171.63295,97.57845 171.63295,94.57845 164.50095,94.57845 164.50095,97.57845 11.711950000000002,97.57845 11.711950000000002,34.76745 14.711950000000002,34.76745 14.711950000000002,29.32945 11.711950000000002,29.32945 11.711950000000002,23.89245 14.711950000000002,23.89245 14.711950000000002,18.45445 11.711950000000002,18.45445 11.711950000000002,13.017450000000004 14.711950000000002,13.017450000000004 14.711950000000002,7.579450000000001 11.711950000000002,7.579450000000001 11.711950000000002,4.579450000000001 14.711950000000002,4.579450000000001 21.844949999999997,4.579450000000001 21.844949999999997,7.579450000000001 28.977950000000007,7.579450000000001 28.977950000000007,4.579450000000001 36.11095,4.579450000000001 36.11095,7.579450000000001 43.24395,7.579450000000001 43.24395,4.579450000000001 50.37695000000001,4.579450000000001 50.37695000000001,7.579450000000001 57.50895,7.579450000000001 57.50895,4.579450000000001 64.64195000000001,4.579450000000001 64.64195000000001,7.579450000000001 71.77495,7.579450000000001 71.77495,4.579450000000001 78.90795,4.579450000000001 78.90795,7.579450000000001 86.04095000000001,7.579450000000001 86.04095000000001,4.579450000000001 93.17295,4.579450000000001 93.17295,7.579450000000001 100.30595,7.579450000000001 100.30595,4.579450000000001 107.43895,4.579450000000001 107.43895,7.579450000000001 114.57195,7.579450000000001 114.57195,4.579450000000001 121.70495,4.579450000000001 121.70495,7.579450000000001 135.96895,7.579450000000001 135.96895,4.579450000000001 143.10195,4.579450000000001 143.10195,7.579450000000001 150.23495,7.579450000000001 " fill="none" stroke="black" stroke-width="1"/>
</svg>
