<svg width="257.675" height="102.2989" xmlns="http://www.w3.org/2000/svg">
    <polyline points="5.001000000000005,97.999 5.001000000000005,35.187 8.0,35.187 8.0,29.748999999999995 5.001000000000005,29.748999999999995 5.001000000000005,24.311999999999998 8.0,24.311999999999998 8.0,18.873999999999995 5.001000000000005,18.873999999999995 5.001000000000005,13.436999999999998 8.0,13.436999999999998 8.0,7.998999999999995 5.0,8.0 5.0,5.0 15.133000000000003,5.0 15.133000000000003,7.998999999999995 22.266,7.998999999999995 22.266,5.0 29.399,5.0 29.399,7.998999999999995 36.532,7.998999999999995 36.532,5.0 43.665,5.0 43.665,7.998999999999995 50.797,7.998999999999995 50.797,5.0 57.93,5.0 57.93,7.998999999999995 65.063,7.998999999999995 65.063,5.0 72.196,5.0 72.196,7.998999999999995 79.328,7.998999999999995 79.328,5.0 86.46000000000001,5.0 86.46000000000001,7.998999999999995 93.593,7.998999999999995 93.593,5.0 100.726,5.0 100.726,7.998999999999995 107.85900000000001,7.998999999999995 107.85900000000001,5.0 114.99199999999999,5.0 114.99199999999999,7.998999999999995 129.257,7.998999999999995 129.257,5.0 136.39,5.0 136.39,7.998999999999995 143.523,7.998999999999995 143.523,5.0 150.656,5.0 150.656,7.998999999999995 157.789,7.998999999999995 157.789,5.0 164.921,5.0 164.921,7.998999999999995 172.054,7.998999999999995 172.054,5.0 179.187,5.0 179.187,7.998999999999995 186.32,7.998999999999995 186.32,5.0 193.453,5.0 193.453,7.998999999999995 200.58499999999998,7.998999999999995 200.58499999999998,5.0 207.718,5.0 207.718,7.998999999999995 214.851,7.998999999999995 214.851,5.0 221.984,5.0 221.984,7.998999999999995 229.117,7.998999999999995 229.117,5.0 239.25,5.0 239.25,5.0 239.25,7.998999999999995 236.249,7.998999999999995 236.249,13.436999999999998 239.25,13.436999999999998 239.25,18.873999999999995 236.249,18.873999999999995 236.249,24.311999999999998 239.25,24.311999999999998 239.25,29.748999999999995 236.249,29.748999999999995 236.249,35.187 239.25,35.187 239.25,40.623999999999995 236.249,40.623999999999995 236.249,46.062 239.25,46.062 239.25,51.498999999999995 236.249,51.498999999999995 236.249,56.937 239.25,56.937 239.25,62.373999999999995 236.249,62.373999999999995 236.249,67.812 239.25,67.812 239.25,73.249 236.249,73.249 236.249,78.687 239.25,78.687 239.25,84.125 236.249,84.125 236.249,89.562 239.25,89.562 239.25,97.999 236.25,97.999 236.25,95.0 229.117,95.0 229.117,97.999 221.984,97.999 221.984,95.0 214.851,95.0 214.851,97.999 207.718,97.999 207.718,95.0 200.58499999999998,95.0 200.58499999999998,97.999 193.453,97.999 193.453,95.0 186.32,95.0 186.32,97.999 179.187,97.999 179.187,95.0 172.054,95.0 172.054,97.999 164.921,97.999 164.921,95.0 157.789,95.0 157.789,97.999 5.001000000000005,97.999 " fill="none" stroke="black" stroke-width="1"/>
    <polyline points="73.22,96.029 73.058,95.786 73.0,95.499 73.058,95.21199999999999 73.22,94.969 73.463,94.807 73.75,94.749 74.037,94.807 74.28,94.969 74.442,95.21199999999999 74.5,95.499 74.442,95.786 74.28,96.029 74.037,96.19099999999999 73.75,96.249 73.463,96.19099999999999 73.22,96.029 " fill="none" stroke="black" stroke-width="1"/>
    <polyline points="73.463,47.19199999999999 73.75,47.248999999999995 74.037,47.19199999999999 74.28,47.029999999999994 74.442,46.78699999999999 74.5,46.498999999999995 74.442,46.211999999999996 74.28,45.968999999999994 74.037,45.806999999999995 73.75,45.748999999999995 73.463,45.806999999999995 73.22,45.968999999999994 73.058,46.211999999999996 73.0,46.498999999999995 73.058,46.78699999999999 73.22,47.029999999999994 73.463,47.19199999999999 " fill="none" stroke="black" stroke-width="1"/>
    <polyline points="132.28,96.029 132.037,96.19099999999999 131.75,96.249 131.462,96.19099999999999 131.219,96.029 131.05700000000002,95.786 131.0,95.499 131.05700000000002,95.21199999999999 131.219,94.969 131.462,94.807 131.75,94.749 132.037,94.807 132.28,94.969 132.442,95.21199999999999 132.5,95.499 132.442,95.786 132.28,96.029 " fill="none" stroke="black" stroke-width="1"/>
    <polyline points="132.28,47.029999999999994 132.037,47.19199999999999 131.75,47.248999999999995 131.462,47.19199999999999 131.219,47.029999999999994 131.05700000000002,46.78699999999999 131.0,46.498999999999995 131.05700000000002,46.211999999999996 131.219,45.968999999999994 131.462,45.806999999999995 131.75,45.748999999999995 132.037,45.806999999999995 132.28,45.968999999999994 132.442,46.211999999999996 132.5,46.498999999999995 132.442,46.78699999999999 132.28,47.029999999999994 " fill="none" stroke="black" stroke-width="1"/>
</svg>
